<svg xmlns="http://www.w3.org/2000/svg" width="1080" height="1080" viewBox="0 0 1080 1080">
  <defs>
    <mask id="m3">
      <rect width="1080" height="1080" fill="white"/>
      <circle cx="540" cy="540" r="380" fill="black"/>
    </mask>
    <path id="textPath3" d="M 110,540 a 430,430 0 1,1 860,0 a 430,430 0 1,1 -860,0"/>
  </defs>
  <!-- Ring -->
  <circle cx="540" cy="540" r="480" fill="white" mask="url(#m3)"/>
  <circle cx="540" cy="540" r="480" fill="none" stroke="#aaa" stroke-width="4"/>
  <circle cx="540" cy="540" r="380" fill="none" stroke="#aaa" stroke-width="3"/>
  <!-- Text along ring -->
  <text fill="#333" font-size="34" font-weight="bold" font-family="sans-serif">
    <textPath href="#textPath3" startOffset="5%">PRF ဂေယာင်ဖိတ် သာ · PRF ဂေယာင်ဖိတ် သာ · PRF ဂေယာင်ဖိတ် သာ</textPath>
  </text>
  <!-- Gold banner at bottom -->
  <path d="M 250,880 L 830,880 L 850,960 L 820,945 L 260,945 L 230,960 Z" fill="#f0a830"/>
  <path d="M 230,960 L 250,880 L 240,880 L 220,960 Z" fill="#c9860a"/>
  <path d="M 850,960 L 830,880 L 840,880 L 860,960 Z" fill="#c9860a"/>
</svg>